<svg height="955.82275" preserveAspectRatio="xMidYMid" viewBox="0 0 905.09998 955.82275" width="905.09998" xmlns="http://www.w3.org/2000/svg">
	<path d="m453.30078.023571c-.7-.299999-5.7 2.298832-11 5.798828-16.79998 10.79999-96.70078 64.000001-97.80078 65.000001-.6.6.2.70039 2 .40039 1.7-.3 12.99923-2.1 25.19922-4 21.39998-3.4 22.5-3.49961 28.5-2.09961l6.30078 1.5 22.5-14.999999c12.39999-8.199992 22.90039-14.900391 23.40039-14.900391.4 0 8.7004 5.300788 18.40039 11.800781 9.69999 6.499994 19.99922 13.198439 22.69922 14.898439l5 3.20117 6.40039-1.5c6.19999-1.5 7.20002-1.40039 29 2.09961 12.39999 1.9 23.40039 3.70039 24.40039 3.90039.9.2 1.39961.00039 1.09961-.59961-.7-1-103.89961-69.7-106.09961-70.499999zm-298.40039 42.699219c-1.45427 0-1.48992.195453-2.67187.271484-.36026-.142842-1.53124-.256945-3.82813-.171875l-4.90039.09961 3 1.300781c1.15716.525981 2.023.744322 2.75781.746094.91075.608126 1.20674 1.041016 2.74219 1.753906 2.7 1.299999 4.79961 2.499219 4.59961 2.699219s-8.89923-.300001-19.19922-1c-12.29999-.999999-22.1004-1.199219-27.90039-.699219-16.69998 1.499998-15.20001.499232-23 14.199219l-6.80078 12.101561-4.89844 24.09961c-2.6 13.19999-5.10156 25-5.60156 26-.5 1.3-1.19922-1.70001-2.19922-9.5l-1.30078-11.40039-1.79883 4.30078c-1.7 3.9-1.80039 5.69923-.90039 19.19922.6 8.29999 1.69961 18.59961 2.59961 23.09961 2.4 12.49999 8.59961 29.30118 12.59961 33.70117 13.79998 15.49999 18.20117 20.19922 18.70117 20.19922.3 0 1.5-.7 2.5-1.5 1.8-1.4 1.79882-1.79923-2.20117-15.19922-6.49999-21.69998-15.69883-61.30078-14.29883-61.30078.4 0 1.20039.89961 1.90039 2.09961 5.2 8.19999 42.59883 49.79961 43.79883 48.59961.2-.1-2.9004-6.79923-6.90039-14.69922-4-7.99999-9.1-19.30079-11.5-25.30078-4.1-10.49999-11.19922-35.19922-11.19922-39.19922 0-1.5 10.39961-28.70078 11.59961-30.30078.2-.4 26.6-10.09922 27.5-10.19922.3 0 12.90001 10.80001 28 24l27.30078 23.90039 14.09961 5.69922c7.69999 3.2 15.39961 6.30039 17.09961 6.90039 1.8.7 5.59961 4.39961 9.09961 8.59961 8.59999 10.69999 8.50116 10.20039 2.20117 9.40039-21.89998-2.9-42.50042-8.8004-74.90039-21.40039-9.20093-3.59577-14.9227-5.71132-18.13086-6.70313-1.58009-1.36807-5.97865-3.60117-6.56836-3.0957-.2.3 1.09844 1.39961 2.89844 2.59961.41423.25314.51077.24554.86328.45117.0217.0205.0135.0274.0371.0488 1.1 1 19.00118 12.6 23.20117 15 12.29999 6.99999 50.29925 16.99922 82.69922 21.69922 5.19999.7 17.90041 4.4 33.40039 9.5 13.8 4.60002 25.69962 8.40042 26.59962 8.40042.8 0 15.80041-5.00001 33.40039-11 17.49998-6.09999 32.09883-10.89961 32.29883-10.59961.2.2-8.99845 7.40001-20.39844 16-19.09998 14.29999-21.70118 15.99883-31.70117 19.79883l-11 4.30078-17.29883 16.5c-9.49999 9.09999-20.00117 18.3-23.20117 20.5-3.3 2.2-16.40001 9.80001-29 17l-23.09961 13-3.5 10.5-3.5 10.5-14.90039 12.5c-15.99998 13.29999-16.09961 13.49962-16.09961 23.09961v4.90039h-3.5c-3.1 0-3.70078.50079-6.80078 5.80078-1.9 3.1-6.80001 11.29923-11 18.19922l-7.69922 12.59961 4.5 31.5 4.59961 31.59961-7.09961 20.90039c-4.5 13.39999-6.9 21.80039-6.5 23.40039.8 3.9 6.5 55.10078 6.5 58.80078 0 1.7.30078 3.19922.80078 3.19922.4 0 4.29922-6.19923 8.69922-13.69922l8.09961-13.70117 8.90039-2.59961c8.49999-2.4 8.99922-2.7 8.69922-5-.2-1.4-2.99922-15.80002-6.19922-32-5.29999-26.39997-6-31.60002-7-49.5-.6-11.09999-.70039-28.49962-.40039-39.09961l.70117-19.09961 12.79883-6.40039c7.09999-3.4 13.00078-6.10039 13.30078-5.90039.2.3 2 13.59923 4 29.69922l3.59961 29.20117-6 24.5-5.90039 24.5 1.40039 17.79883c.8 9.79999 1.5 20.00156 1.5 22.60156v4.79883l5.90039-.69922c3.7-.4 6.1-.19961 6.5.40039s1.70039 5.69844 2.90039 11.39844l2.39844 10.20117 4.90039 3c19.09998 11.29999 37.60117 21.59961 38.70117 21.59961.7 0 11.19923-4.70079 23.19922-10.30078 23.39998-11.09999 25.5-11.99961 25.5-11.09961s-9.8004 14.80041-22.90039 32.40039c-6.39999 8.69999-12.89883 18.70039-14.79883 22.90039-1.9 4-3.20156 7.49961-3.10156 7.59961.8.7 14.00078 4.60078 14.30078 4.30078.2-.2 1.80039-4.10157 3.40039-8.60156 1.7-4.5 3.7-9.4 4.5-11 1.4-2.6 38.59961-40.29961 38.59961-39.09961 0 .4-5.8004 12.10001-12.90039 26-7.09999 13.99999-13.89961 28.80039-15.09961 32.90039l-2.19922 7.40039 2.29883 10.90039c1.3 6.2 2.6 10.3 3 9.5.4-.7 3.10039-6.70079 5.90039-13.30078 2.9-6.59999 5.59961-12.40039 6.09961-12.90039.5-.6.90039 2.89961.90039 8.59961v9.5l7.30078 15 7.19922 15 18 16c9.89999 8.89999 22.70001 20.90118 28.5 26.70117 12.19999 12.39999 13.79919 11.2-13.30078 9.5l-17.09961-1.09961-7.09961-6.10156c-3.8-3.4-14.69923-13.69962-24.19922-23.09961-6.9295-6.85656-11.92441-11.4877-14.85156-14.00391.0546-.34339-.21885-.81-1.04883-1.69531-2-2.3-2.80039-1.8-1.90039 1 .1429.42869.38587.67043.61719.92773.2981 2.011.97607 5.61019 2.68359 11.8711l3.79883 14 6.90039 7.90039c7.49999 8.69999 8.60001 9.49962 22.5 17.59961 8.99999 5.29999 10.99925 5.9004 39.69922 13.40039 16.59998 4.3 30.00078 8.10039 29.80078 8.40039-.2.4-11.9004 3.3-25.90039 6.5l-25.5 5.90039-6.29883-3.40039c-3.5-1.9-10.10118-5.59922-14.70117-8.19922-4.6-2.7-8.49961-4.70156-8.59961-4.60156-.2.2 1.80078 3.8 4.30078 8l4.69922 7.70117 21 10.69922c11.59999 5.89999 21.4 11 22 11.5 1.3 1.3.89924 1.30078 18.69922-3.19922 15.99998-4 16.30041-4.10118 32.40039-13.70117l16.30078-9.69922.09961-5.19922c0-5.09999-.0992-5.30119-15.19922-25.20117l-15.30078-20.19922-22-12.90039-22-12.90039.30078-32.5c.16923-18.10697-.0881-27.15629-.57422-30.05274.45295-.42174.77344-1.15127.77344-2.54687 0-1.6-.20039-3-.40039-3s-.9 1.4-1.5 3c-.34763 1.0429-.44421 1.62435-.43555 2.08594-.0803.21152-.19751.18251-.26367.41406-.3 1.4-.90078 2.29961-1.30078 2.09961-.4-.3-1.99961-5.6004-3.59961-11.90039l-2.90039-11.5 4.30078-18.79883c4-17.99998 4.29883-19.89963 4.79883-39.59961.4-12.19999.20117-20.80078-.29883-20.80078s-3.10039 1.30078-5.90039 2.80078c-4.6 2.5-5.10078 3.10001-5.80078 7.5-.5 2.6-1.19922 4.69922-1.69922 4.69922-.8 0-3-14.59922-3-20.19922 0-2.1-.29961-3.80078-.59961-3.80078s-2.70078 1.8-5.30078 4-4.99883 4-5.29883 4c-1.7 0-6.80078-23.69962-6.80078-31.59961 0-.8-2.7004-1.50039-7.40039-1.90039-8.29999-.8-8.40041-.8004-22.40039-12.40039-10.69999-8.79999-11.29883-9.8004-15.29883-22.90039-1.2-4.1-1.59962-4.49962-12.59961-10.09961-6.19999-3.2-11.30078-5.49922-11.30078-5.19922s4.79922 8.99884 10.69922 19.29883c9.69999 17.09998 11.20078 19.1 15.30078 21.5 6.69999 3.89999 29 18.40039 29 18.90039 0 .2-5.00001.10078-11-.19922l-11.09961-.70117 1.09961 2.5c.7 1.3 4.69961 5.70117 9.09961 9.70117 4.39999 4 7.79961 7.49922 7.59961 7.69922-.2.3-7.49962-2.99922-16.09961-7.19922-17.29998-8.49999-16.49922-7.70118-19.19922-19.20117-1.2-5.4-3.40001-9.00002-16-27-7.61065-10.84517-13.78508-19.4292-15.03125-20.92969-.0824-.39307-.32369-.84529-.86914-1.26953-1.3-1.1-1.5-.9-1.5 1.5 0 1.22764.21929 1.76437.52734 1.82422-.41786 3.14787-.82793 8.81553-1.32812 18.875l-1.19922 23.30078 6.19922 15.30078c4.29999 10.59999 6.90039 15.7 8.40039 16.5 4.49999 2.5 35.40039 23.19922 35.40039 23.69922 0 .4-5.99923 2.50078-13.19922 4.80078l-13.30078 4.19922-12.5-2.09961c-6.89999-1.2-12.60078-2.30039-12.80078-2.40039-.5-.4-22.39844-62.6-22.89844-65-.2-1.2 2.49922-13.20079 6.19922-26.80078l6.69922-24.79883-3.19922-22.70117c-1.7-12.49999-3.29961-24.69922-3.59961-27.19922s-3.2-10.70079-6.5-18.30078c-5.39999-12.59999-5.8-13.99844-4.5-15.89844.8-1.1 7.30001-8.5004 14.5-16.40039 12.99999-14.19999 13.09922-14.29961 13.69922-20.09961.6-5.09999 1.20078-6.2 4.80078-9.5 22.49998-20.19998 42.20039-37.50078 42.40039-37.30078.4.4-3.6004 8.50002-11.90039 23.5-5.69999 10.39999-16.9 37.30001-18.5 44.5-.3 1.1 1.1 13.20079 3 26.80078 2 13.69999 3.59961 25.3 3.59961 26 0 2.1 1.7-.70079 4-6.80078 1.3-3.3 2.59961-6.40039 3.09961-6.90039.4-.4 5.90118.9 12.20117 3l11.59961 3.80078 2.69922 6.40039c5.49999 13.09999 15.6004 25.49923 26.90039 33.19922l5 3.40039-4.69922-5.40039c-9.29999-10.69999-14.80078-24.60079-14.80078-37.80078 0-7.89999 1.59922-11.10001 7.69922-15 5.89999-3.8 21.2-11.19922 23-11.19922.8 0 2.70078.7 4.30078 1.5l2.90039 1.5-4.30078 6.30078c-9.49999 13.69999-13 23.59923-13 37.69922 0 12.09999 1.6004 17.30001 9.90039 32 6.39999 11.29999 12.69922 27.29923 16.69922 42.19922l2.10156 7.80078 7.09961 4c3.9 2.1 9.00039 5.1 11.40039 6.5 2.3 1.4 4.19922 2.39922 4.19922 2.19922s-3.30079-8.10001-7.30078-17.5c-8.09999-18.79998-14.79845-30.29845-24.89844-42.39844-6.89999-8.39999-7.80078-10.60079-7.80078-19.30078 0-14.99999 11.20002-33.20079 28.5-46.30078 3.3-2.5 6.09922-4.59961 6.19922-4.59961.5-.3 4.60156-37.59961 4.10156-38.09961-.3-.3-8.70118-.1-18.70117.5l-18.19922 1.19922-24.5 10.90039c-13.59999 6.09999-24.79961 10.79961-25.09961 10.59961-.5-.6 3.39885-4.99963 25.29883-29.09961l17.5-19.29883 7.20117-.70117c4-.3 18.19923-1.49961 31.69922-2.59961 15.99998-1.3 24.79961-2.39922 25.59961-3.19922 1.9-2.2 35.40039-62.90117 35.40039-64.20117s-4.59961-14.09883-5.59961-15.79883c-.3-.4-8.5004 8.60001-18.40039 20-9.79999 11.39999-19.59922 22.7-21.69922 25l-3.80078 4.39844-12.40039.90039c-12.19999.9-12.59885 1.0004-32.79883 8.90039-30.39997 11.99999-41.60156 16.1-42.10156 15.5-.6-.6 7.70081-11.49925 35.30078-46.69922l4.5-5.70117 23.19922-7.5 23.30078-7.5 17.30078-17.40039 17.29883-17.29883-2.5-9.80078c-1.3-5.4-2.59883-9.89922-2.79883-10.19922-.3-.2-7.10157 1.8-15.10156 4.5-8.09999 2.8-23.20001 6.8-33.5 9-17.19998 3.7-61.7 12.09961-64 12.09961-.5 0-4.39961-4.70001-8.59961-10.5-3.38408-4.56457-5.36768-6.81646-6.76758-8.26367-.82773-2.1336-3.58295-6.23633-4.43164-6.23633-.3 0 .49961 1.8 1.59961 4 .70526 1.35174 1.38688 2.26524 1.97852 2.86133 1.13292 4.244 7.37124 20.19001 9.92187 24.93945 2 3.7 1.20038 3.29921-6.59961-3.30078-10.59999-8.89999-20.0004-15.3004-31.40039-21.40039-9.69999-5.2-40.90078-18.09961-43.80078-18.09961-1.4 0-1.39961-.2-.0996-1 .8-.5 9.90079-1 20.30078-1 10.29998 0 18.69921-.29922 18.69921-.69922-.1-1.2-15.99962-13.20078-23.59961-17.80078-3.8-2.3-13.9004-7.9004-22.40039-12.40039l-15.5-8.199219 6 .699218c3.3.4 8.7 1.300391 12 1.900391 3.3.7 6.10078 1.19961 6.30078 1.09961.1-.2-6.90001-3.700395-15.5-7.900391-20.19998-9.699991-36.3004-14.699219-47.40039-14.699219zm605.59961 0-11 .300781c-9.59999.4-12.60001.900004-23.5 4.5-6.89999 2.299998-18.80001 7.299223-26.5 11.199219s-13.19922 6.8-12.19922 6.5c3.5-1 21.89883-3.699218 22.29883-3.199219.2.2-7.79884 4.799229-17.79883 10.199219-10.09999 5.39999-19.60078 10.70078-21.30078 11.80078-5.99899 4.02917-16.50012 12.19161-18.88086 14.5332.006-.013-.027-.0201-.0195-.0332.4-.7.19961-.80039-.40039-.40039-.7.4-1.19922 1.09922-1.19922 1.69922 0 .0152.0727.0203.0762.0352-.00067.004-.0762.061-.0762.0644 0 .0155.28294.022.29687.0371.38022.39629 1.88887.65258 4.00391.56445l.39844-.01c2.96041.15401 7.02977.25779 11.60156.30859 8.89999 0 17.99922.30078 20.19922.80078 4 .7 3.99922.70039 1.19922 1.40039-6 1.6-28.69923 10.99883-39.19922 16.29883-13.49999 6.79999-25.59923 14.80118-35.19922 23.20117-3.99999 3.4-7.30078 6.09844-7.30078 5.89844 0-.6 8.20039-19.99845 11.90039-27.89844 1.6-3.79999 2.89922-6.80078 2.69922-6.80078s-4.2004 5.10079-8.90039 11.30078c-4.8 6.29999-9.3 11.89961-10 12.59961-1.1.9-6.99963.0996-26.09961-3.40039-37.49996-6.79999-55.70002-11.00001-72-16.5-11.09999-3.7-15.19922-4.70078-15.69922-3.80078-.4.7-1.8 5.20157-3 10.10156l-2.20117 8.89844 17.40039 17.40039 17.40036 17.40065 23.19922 7.5 23.20117 7.5 15.29883 19.80078c22.79998 29.19997 25.1 32.29883 24.5 32.79883-.2.2-14.49885-4.99962-31.79883-11.59961l-31.30078-12-12.5-1c-6.79999-.5-12.49961-1.10078-12.59961-1.30078-.1-.1-7.39962-8.59884-16.09961-18.79883s-18.10039-21.30117-20.90039-24.70117c-2.01261-2.45986-3.13761-3.59527-4.09961-4.54688-.0151-.06.021-.0893 0-.15234-.37344-.74687-.92243-1.31607-1.40039-1.40039-.034-.006-.0664-.0996-.0996-.0996-.5 0-.90039.7-.90039 1.5 0 .15987.12856.27282.17969.41992-1.52832 2.68637-5.1797 12.64136-5.1797 14.48046 0 1.6 9.20041 18.49965 30.40039 56.09961l5.09961 9 6 .69922c3.3.4 17.4004 1.70078 31.40039 2.80078s25.89961 2.40078 26.59961 2.80078c1.9 1.1 42.69922 47.39883 42.19922 47.79883-.2.3-11.49962-4.50001-25.09961-10.5l-24.79883-11-18.60156-1c-10.19999-.6-18.69883-.89883-18.79883-.79883-.2.2 4.39961 34.29883 5.09961 37.29883.2 1.1 1.6 2.60117 3 3.20117 4.2 1.9 19.1 16.89962 23.5 23.59961 6.69999 10.39999 9.99961 22.5004 8.59961 31.90039-.5 3.5-2.29923 6.39884-8.19922 13.79883-4.2 5.19999-10.00039 13.50039-12.90039 18.40039-5.09999 8.49999-19.09922 39.29961-18.19922 40.09961.2.2 5.29844-2.59922 11.39844-6.19922l11-6.5 2.20117-8.09961c4-14.29998 10.89962-31.60079 16.09961-40.30078 2.9-4.7 6.09922-11.10078 7.19922-14.30078 2.5-6.99999 3.50039-21.69923 1.90039-29.19922-1.7-8.29999-6.59961-19.70001-11.59961-27-4.1-5.99999-4.29922-6.60078-2.69922-7.80078 3.8-2.8 6.00001-2.39843 17.5 3.10156 7.49999 3.7 12.4 6.69922 14.5 9.19922 3.1 3.4 3.19922 3.9004 3.19922 12.40039 0 13.89999-4.99923 26.89962-14.69922 38.09961l-4.80078 5.5 5-3.90039c13.29999-10.39999 21.00001-19.89962 27-33.09961l3.40039-7.40039 11-3.5c6.09999-2 11.70039-3.59961 12.40039-3.59961s2.29961 3 3.59961 7c1.2 3.8 2.6 7.2 3 7.5 1 .6 1.2-.50042 5-29.90039l2.90039-21.69922-6.90039-17.70117c-3.7-9.69999-10.40079-24.49845-14.80078-32.89844-4.3-8.29999-8.29922-16.2-8.69922-17.5-.7-2.3 1.49964-.50076 27.59961 23.19922 19.39998 17.59998 19 17.20079 19 22.30078 0 4.5.30001 4.89963 15 21.09961l14.90039 16.59961-1.40039 3.80078c-.7 2-3.60039 8.89923-6.40039 15.19922s-5.09961 12.9-5.09961 14.5c0 1.7-1.60039 13.50079-3.40039 26.30078l-3.29883 23.19922 6.69922 25.19922 6.80078 25.10156-11.40039 33c-6.29999 18.19998-11.50117 33.19883-11.70117 33.29883-.1.2-5.89923 1.20039-12.69922 2.40039l-12.5 2.09961-13.19922-4.19922c-7.29999-2.4-13.30078-4.50078-13.30078-4.80078s8.50079-6.1004 18.80078-12.90039l18.89844-12.19922 6-15.30078 6-15.19922-.89844-18.5c-.5-10.19999-1.20156-20.59961-1.60156-23.09961l-.69922-4.59961-15 21.19922c-14.69999 20.89998-16.4 24.0004-19.5 36.40039l-1.09961 4.29883-15.5 7.40039c-8.39999 4.1-15.69961 7.40039-16.09961 7.40039s3.50001-4.2004 8.5-9.40039c5.1-5.1 9.19922-9.69961 9.19922-10.09961s-5.09922-.4-11.19922 0c-7.69999.5-11.00078.39922-10.30078-.30078.6-.6 7.10001-4.90001 14.5-9.5 7.39999-4.7 14.69922-9.49961 16.19922-10.59961 2-1.6 23.80078-37.60039 23.80078-39.40039 0-.2-5.20001 2.3-11.5 5.5s-11.5 6.30078-11.5 6.80078-1.39961 4.8-3.09961 9.5l-3.09961 8.59961-11.90039 9.5c-11.59999 9.39999-12.09962 9.6-18.59961 10.5-3.79999.4-7.6.80039-8.5.90039-1.5 0-1.80078.90079-1.80078 4.80078 0 5.9-1.59922 15.90001-3.69922 23.5l-1.60156 5.69922-5.19922-4.5c-1.63919-1.4131-2.19298-1.72025-3.2793-2.54297-.10583-.17058-.0362-.21725-.2207-.45703-.7-.8-1.59961-1.5-2.09961-1.5-.0358 0-.0298.10046-.0644.10742-.01-.002-.12962-.10742-.13672-.10742-.01 0-.0418.40606-.0527.42383-.30118.24937-.64657.50209-.64657 1.07617 0 .31351.22491.52979.41797.75781-.24356 1.34576-.52097 2.9-.81836 6.54297-.4 4.8-1.1 10.49922-1.5 12.69922l-.69922 4-1.90039-5.80078c-1.8-5.3-2.5004-6.2-7.40039-9l-5.40039-3 .60156 21.90039c.5 21.09998.69922 22.70041 4.69922 40.40039l4.19922 18.5-1.69922 7c-.9 3.8-2.39922 9.5-3.19922 12.5-1.4 4.6-1.70078 5.09961-2.30078 3.09961-.0802-.37422-.29993-.41768-.42773-.74805.13848-1.17215-.62553-3.63086-1.67188-4.75195-.5-.6-.80117 2.1-.70117 6.5.1 4.69999.3 5.90117.5 3.20117.0254-.30506.11025-.48936.15039-.77539-.17272 5.00481-.22638 12.5914-.0488 25.375l.5 31.90039-22 13.09961c-11.99999 7.19999-23 14.29883-24.5 15.79883-1.4 1.6-8.40118 10.60001-15.70117 20-13.10002 17.19998-13.09964 17.30118-13.09964 22.70117v5.40039l16.5 9.5c15.99998 9.39999 16.89923 9.69961 30.69922 13.09961 7.89999 1.9 15.40078 3.5 16.80078 3.5 1.4.1 12.19962-4.8004 24.09961-10.90039l21.59961-11 5.20117-8.09961c2.8-4.39999 4.79883-7.90117 4.29883-7.70117-.4.1-7.19962 3.80118-15.09961 8.20117-11.99999 6.59999-14.80039 7.69922-17.40039 7.19922-9.99999-1.9-47.69922-11-47.69922-11.5 0-.3 4.40079-1.7 9.80078-3 5.3-1.3 18.69923-4.79883 29.69922-7.79883 18.69998-4.99999 20.7004-5.80157 31.40039-12.10156 9.39999-5.6 12.8004-8.30001 19.40039-15.5l8-8.69922 3.69922-13.80078c1.54158-5.72587 2.30592-9.63303 2.52148-11.86524.42984-.3583.79208-.82766.97852-1.43359 1-3.1.1-3.20039-2.5-.40039-1.34993 1.46731-1.67472 1.99182-1.48047 2.24219-3.02748 2.58708-7.86199 7.04166-14.41992 13.45703-9.09999 9.09999-19.79883 19.2-23.79883 22.5-8.09999 6.79999-6.80081 6.60039-34.80078 7.90039l-13 .59961 11.5-11.69922c6.29999-6.39999 19.19962-18.60001 28.59961-27l17.09961-15.40039 7.10156-14 7.09961-14.09961.19922-9.90039c.2-5.5.6-9.79961 1-9.59961.4.3 3.3 6.30001 6.5 13.5 3.2 7.09999 5.89961 12.79922 6.09961 12.69922.1-.2 1.20039-4.79844 2.40039-10.39844l2.09961-10-2.59961-8.70117c-1.7-5.3-7.39923-17.69923-15.19922-32.69922-6.89999-13.29999-12.40117-24.3-12.20117-24.5s9.00001 8.3004 19.5 18.90039l19 19.19922 3.20117 8.80078c1.7 4.8 3.09961 9.19922 3.09961 9.69922 0 2 2.40079 2.00039 8.80078-.0996 3.7-1.2 6.8-2.30039 7-2.40039 1.2-1-9.60118-18.90079-18.20117-30.30078-10.09999-13.5-24.79922-34.19923-24.19922-34.19923s18.80002 8.1004 34.5 15.40039c8.99999 4.2 16.9 7.59961 17.5 7.59961.6-.1 10.09962-5.4004 21.09961-11.90039l20-11.69922 3-11.70117 3-11.69922 6 .59961 6.09961.59961 1.40039-21.29883c.7-11.79999 1.30078-22.10039 1.30078-22.90039s-2.60078-12.40079-5.80078-25.80078l-5.90039-24.29883 3.59961-29c2-15.99998 3.90117-29.29961 4.20117-29.59961s6.29884 2.29883 13.29883 5.79883l12.80078 6.40039.69922 17.5c.4 9.59999.20156 27.20001-.39844 39-1 20.09998-1.50079 23.60003-7.30078 53-3.5 17.29998-6.10039 31.79961-5.90039 32.09961s4.20039 1.60039 8.90039 2.90039l8.59961 2.30078 8.70117 14.59961 8.69922 14.59961.30078-4.09961c.2-2.3 1.8-17.1008 3.5-32.80078l3.29883-28.69922-7.09961-20.90039-7-20.90039 4.30078-30.29883c2.3-16.69998 4.19922-31.00039 4.19922-31.90039s-4.70001-9.70001-10.5-19.5c-9.79999-16.59998-10.80078-17.90039-13.80078-18.40039l-3.19922-.5-.30078-7.09961-.29883-7.09961-14.20117-11.90039c-7.79999-6.59999-14.89883-12.59961-15.79883-13.59961-1-.9-3-5.6-4.5-10.5-1.6-4.79999-3.20117-9.3-3.70117-10-.8-1.1-40.99923-24.40078-49.69922-28.80078-3.2-1.7-8.99924-6.9008-32.19922-29.30078-8.39999-8.09999-9.30157-8.69922-21.60156-13.69922-11.99999-4.9-14.19963-6.30001-33.09961-20.5-11.09999-8.39999-19.99883-15.39961-19.79883-15.59961s15.10002 4.49962 33 10.59961c17.89998 5.99999 33.39844 11 34.39844 11s13.30079-3.8 27.30078-8.5c21.99998-7.29999 27.80001-8.80039 42-10.90039 27.89997-4.3 58.6004-12.79923 70.90039-19.69922 5.99999-3.3 30.09961-18.90039 30.09961-19.40039 0-.2-5.99923 2.09922-13.19922 5.19922-28.29997 11.69999-45.4008 17.90078-60.80078 21.80078-11.19999 2.8-28.20039 5.80078-30.40039 5.30078-1.1-.2.40118-2.6 5.20117-8.5 6.59999-8.09999 6.79923-8.20039 17.19922-12.40039 23.59998-9.49999 22.60003-8.90041 49.5-32.90039 13.79999-12.19999 25.69961-22.89922 26.59961-23.699219 1.4-1.199999 3.40001-.801168 15 3.298828 7.39999 2.600001 13.89961 5.299611 14.59961 6.099611.6.9 3.70117 7.8004 6.70117 15.40039l5.59961 13.80078-2.5 9.79883c-5.09999 19.79998-13.5004 41.8008-22.90039 59.80078-1.7 3.3-3.40039 6.9-3.90039 8-1.3 3.5 25.40079-24.50079 35.30078-36.80078 5.09999-6.39999 9.49961-11.59844 9.59961-11.39844 1 1-10.79922 50.39963-15.69922 65.59961-1.6 5.1-2.90117 9.39961-2.70117 9.59961.2.1 1.40117.8 2.70117 1.5 2.7 1.4 1.7004 2.30077 14.90039-12.69922 8.59999-9.89999 9.1-10.60001 12.5-21 4.9-14.79998 6.49883-23.30041 7.79883-40.90039 1-12.39999.90078-16.00078-.19922-19.80078-.7-2.5-1.60039-4.59961-1.90039-4.59961-.4 0-1.20039 4.79962-1.90039 10.59961s-1.69961 10.20117-2.09961 9.70117c-.4-.4-2.9-11.80079-5.5-25.30078l-4.90039-24.5-6.40039-11.800781c-3.6-6.499994-7.29922-12.199219-8.19922-12.699219-3.9-2.099998-24.8008-2.800389-41.80078-1.400391-22.09998 1.799999-21.69921 1.800778-14.19922-2.199218zm-366.30078 33.30078-23.79883 4.29883c-22.39998 3.9-25.90042 4.90118-55.40039 14.70117-36.59996 12.19999-36.59996 11.29961.5 12.59961 12.69999.4 25.29961.90039 28.09961.90039 2.8.1 10.70001-.90078 17.5-2.30078 6.79999-1.3 28.60041-5.6 48.40039-9.5s36.9-7.29922 38-7.69922c2.6-.8 1.80036-1.00118-29.09961-7.70117zm117.30078.59961c-1.6-.1-11.30001 1.70039-21.5 3.90039-19.31652 4.20197-26.92618 5.94097-30.00391 6.92774-.35001-.12071-.90502-.1155-1.79687.0723-2.4.5-2.49922.59883-.69922 1.29883 1.1.4 2.09961.80078 2.09961.80078.0427.0427.19868-.34762.29883-.51367 2.03459.60711 9.32242 2.19401 19.10156 4.11328 10.69999 2.1 32.30002 6.3 48 9.5 24.49998 5 29.70001 5.70039 37 5.40039 4.7-.2 19.40079-.6 32.80078-1 13.29999-.3 24.19922-.90078 24.19922-1.30078s-14.69924-5.5004-32.69922-11.40039c-29.79997-9.79999-34.7008-11.09883-53.30078-14.29883-11.29999-1.9-21.8-3.5-23.5-3.5zm-340 63.19922c-.2.2 10.80079 7.10118 24.30078 15.20117l24.69922 14.79883 5-.5c2.8-.3 11.80001-1.29961 20-2.09961 8.29999-.9 15.40039-1.70078 15.90039-1.80078.5-.2-6.90001-.89961-16.5-1.59961l-17.30078-1.40039-12.09961-5.19922c-16.89998-7.29999-43.5-17.80039-44-17.40039zm561.25.41211c-.175-.2375-1.05078-.2125-2.55078.1875-.76176.19044-1.1949.50408-1.42578.83398-.61719.19051-.64032.0408-1.47266.36719-8.29999 3.3-33.50079 13.80039-41.80078 17.40039-7.09999 3.1-9.70001 3.59883-22.5 4.79883-6.38256.5077-10.62444 1.06705-12.06445 1.52734-1.05187-.15572-1.92144-.42773-2.93555-.42773l-3.5.10156 3.5.69922c1.9.4 4.4.80078 5.5.80078l2 .0996-.29492-.13281c2.90775.48093 5.64121.97604 10.79492 1.5332 7.39999.7 14.69922 1.5 16.19922 1.5 1.8.2 9.30001-3.8004 23.5-12.40039 11.39999-6.99999 22-13.40078 23.5-14.30078.77389-.4573 1.1649-.77127 1.60156-1.10156.10529-.0485.19283-.0398.29883-.0977 1.3-.65 1.82539-1.15117 1.65039-1.38867zm-102.75 29.08789-7.19922 2.30078c-3.99999 1.2-7.90117 2.39922-8.70117 2.69922s4.50001 3.90118 12 8.20117c7.39999 4.3 18.6004 10.8 24.90039 14.5 9.29999 5.4 14.40001 7.49922 26.5 11.19922 28.19997 8.59999 62.00039 20.00078 59.90039 20.30078-1.2.2-13.00079-1.50078-26.30078-3.80078-11.02878-1.90723-17.63751-2.81152-20.97852-3.15234.82522-.62391.57996-.84766-1.32031-.84766-1.4 0-3.5-.29961-4.5-.59961-1.6-.5-1.60039-.4.0996 1 1.4104 1.10379 2.44789 1.3964 3.49219 1.29688 5.26731 4.1354 42.91028 27.34598 51.00781 31.30273 3.1 1.5 15.29962 7.40001 27.09961 13s21.90039 10.59961 22.40039 11.09961c1.3 1.1 2.30039.30117 2.90039-2.29883.2-1.3 3.19961-11.50079 6.59961-22.80078 5.79999-19.69998 6.00039-20.5 4.40039-23-6.49999-9.79999-15.6-21.00039-17.5-21.40039-2.8-.6-29.4-4.59961-30.5-4.59961-.4 0 5.29923 3.30079 12.69922 7.30078l13.40039 7.19922 4.40039 7.30078 4.39844 7.29883-1.19921 10.20117c-.6 5.6-1.3 10.39961-1.5 10.59961s-4.5004-3.10078-9.40039-7.30078c-33.59997-28.49997-90.89888-59.09923-139.79883-74.69922zm-354.59961.40039c-1.3 0-7.59962 1.70039-14.09961 3.90039-49.09995 16.09998-99.60082 43.80003-136.80078 75-6.99999 5.79999-6.70039 6.09881-7.90039-7.70117l-.69922-8.19922 4.69922-7.5c4.99999-7.89999 6.1008-8.69923 26.30078-19.19922 5.6-2.9 4.19959-2.90078-13.90039.19922-7.99999 1.4-14.59922 2.5-14.69922 2.5-.9 0-17.30078 22.99922-17.30078 24.19922s11 40.30157 12.5 44.60156c.2.6.60039 1.19922.90039 1.19922s12.99884-6.00079 28.29883-13.30078c25.79997-12.29999 37.20081-18.80002 67.30078-38 9.99999-6.39999 12.60039-8.39844 9.90039-7.39844-3 1-54.99961 9.8-56.09961 9.5-1.3-.5 32.00003-11.70079 58.5-19.80078 10.89999-3.3 21-6.60039 22.5-7.40039 13.49999-7.09999 47.29961-27.59961 46.09961-28.09961-7.29999-2.7-13.6-4.5-15.5-4.5zm173.09961 30.5-5.69922 11.09961-5.70117 11.09961-.69922 12.90039-.59961 12.90039-5.10156 8c-20.49998 32.39997-23.39962 36.3004-31.09961 41.40039l-7.29883 4.90039-1.20117 12.79883-1.19922 12.80078-7.59961 13.79883-7.5 13.70117 3.19922 22.79883c1.8 12.49999 3.90039 27.70118 4.90039 33.70117l1.59961 10.90039 7.30078-16.40039c11.29999-25.49997 19.69923-40.6004 29.69922-53.40039 4.9-6.29999 8.99922-11.29961 9.19922-11.09961s-2.59883 6.99923-6.29883 15.19922c-6.09999 13.79999-16.30039 40.29962-17.90039 46.59961-.7 2.7 1.60001 9.10042 15 40.90039l5.30078 12.5-1.20117 18-1.19922 17.90039-1.59961-7c-1-3.8-2.40117-10.89922-3.20117-15.69922-1.1-5.89999-2.79883-11.30118-5.79883-17.20117-2.3-4.7-4.6-8.59961-5-8.59961s-2.30117 2.09961-4.20117 4.59961l-3.59961 4.70117.69922 20.79883.60156 20.70117-3.20117 5.09961c-1.8 2.8-3.49922 5.09961-3.69922 5.09961-.3 0-.20078-2.2.19922-5 .6-4.6-.99961-16.80078-2.59961-19.80078-.4-.9-1.80078.10039-4.30078 3.40039l-3.69922 4.70117v12.09961c0 6.69999-.9 19.99962-2 29.59961-1.7 15.69998-1.8 20.60003-1 47 .5 16.19998 1 31.60078 1 34.30078 0 2.6.29961 4.69922.59961 4.69922s1.80078-.90039 3.30078-1.90039c1.5-1.1 6.40001-3.09961 11-4.59961l8.29883-2.69922 8.60156 2.19922c4.8 1.2 10.49883 3.10039 12.79883 4.40039 3.8 2.1 5.2008 2.30039 24.80078 2.40039 18.49998 0 21.19883-.20078 23.79883-1.80078 1.7-1 7.50039-3.09961 12.90039-4.59961l9.90039-2.70117 6.19922 1.80078c3.5 1 8.7 3.09961 11.5 4.59961 2.9 1.6 5.40156 2.90039 5.60156 2.90039.3 0 .69961-15.89924 1.09961-35.19922.6-31.79997.49922-37.20158-1.30078-54.10156-1.2-10.39999-2.09961-23.49884-2.09961-29.29883v-10.40039l-3.69922-4.09961-3.80078-4.09961-1.69922 8.59961c-1.2 6.09999-1.50039 9.89961-.90039 13.09961.5 2.5.59922 4.5.19922 4.5-.3 0-1.79883-2.00039-3.29883-4.40039l-2.80078-4.29883v-21.90039-21.90039l-3.90039-4.69922-3.90039-4.70117-4.39844 9.20117c-3.79999 7.89999-4.80078 11.19923-6.80078 23.69922-1.2 7.99999-2.6 14.90078-3 15.30078s-1.3-7.30118-2-17.20117l-1.19922-17.90039 10.19922-25.29883 10.30078-25.30078-2.80078-8.5c-3.8-12.09999-8.49962-23.99924-15.59961-40.19922-3.4-7.69999-6.00117-14.20039-5.70117-14.40039.6-.6 13.00157 15.20001 18.10156 23 3.3 5 10.79924 19.90003 26.19922 52l2.40039 5v-3.40039c.1-4.2 6.99922-58.90039 7.69922-61.40039.4-1.1-2.30001-7.09884-7-15.79883l-7.59961-13.90039-1.5-13.19922c-.8-7.19999-1.59922-13.20078-1.69922-13.30078-.2-.2-3.5-2.30039-7.5-4.90039-7.69999-4.9-7.90002-5.19964-25-32.09961-12.29999-19.39998-11.30078-16.80079-11.30078-29.80078v-11.5l-5.69922-11.79883-5.80078-11.80078-.30078 24.59961-.19922 24.70117 8.80078 17.90039c8.29999 16.89998 9.49845 18.69884 19.39844 29.79883 9.79999 11.09999 10.70078 12.5004 13.30078 20.40039 1.5 4.7 6.29922 15.60079 10.69922 24.30078l7.90039 15.79883-.29883 14.20117-.30078 14.19922-7.5-14.90039c-6.49999-12.89999-8.69962-16.20001-16.59961-25-8.49999-9.49999-27.4-28.00039-28-27.40039-.1.2 2.39961 12.00079 5.59961 26.30078 6.69999 29.29997 9.30078 44.30001 8.80078 50.5l-.30078 4.19922-4.69922-10.79883c-2.5-5.99999-6.8-17.29962-9.5-25.09961-1.57397-4.78245-3.00488-8.40017-4.16406-10.99609.26393-.36849-.00092-1.53083-.83594-4.10547-.9-2.6-1.70039-4.89961-1.90039-5.09961s-.30078 2.7-.30078 6.5c.1 3.8.39961 5.89961.59961 4.59961.005-.0272.0197-.0319.0254-.0586-.0962 3.35069-.0722 8.33491.0762 15.16016.3 17.69998-1.4 71.29925-3.5 105.69922-.7 10.99999-.80039 11.19999-1.40039 5.5-.4-3.3-1.20078-17.90001-1.80078-32.5-2.5-56.19994-2.90039-76.90001-1.90039-89 .5-6.69999.80156-12.90078.60156-13.80078s-3.00117 6.20079-6.20117 15.80078c-5.1 15.29998-13.90039 37.5-15.40039 39-.8.8.80078-16.4004 2.30078-24.90039.7-4.3 3.00039-14.49923 4.90039-22.69922 4.0515-16.97041 6.20037-27.39864 6.55664-31.42383.1529-.19424.36734-.34811.44336-.57617 1-2.5.0996-2.70039-1.90039-.40039-.37341.4232-.39777.54781-.59766.81445-1.8189 1.40891-7.79797 7.08118-16.40234 15.68555l-17.40039 17.59961-7.09961 14.5c-3.8 7.99999-7 15-7 15.5s-.40078.90039-.80078.90039c-.5 0-1.2-5.99923-1.5-13.19922l-.69926-13.30078 7.69922-15c4.19999-8.19999 9.10039-19.50001 10.90039-25 3.2-9.69999 3.49962-10.30001 14.09961-22.5 10.09999-11.69999 11.30157-13.60041 19.60156-30.40039l8.69922-17.90039-.19922-24.09961zm269.09961 57.5c-.6 0 3.4004 2.40078 8.90039 5.30078 30.49997 16.19999 42.99923 24.09884 53.19922 33.79883 4.99999 4.79999 15.00118 13.5004 22.20117 19.40039 7.19999 5.99999 12.89922 10.99922 12.69922 11.19922s-8.39923-4.89884-18.19922-11.29883c-14.55057-9.46493-26.12208-16.09201-31.54297-18.28906-.25756-.19291-.35158-.33031-.85742-.61133-2.10658-1.12351-2.52368-.96978-2.46289.004-.0192.0835-.17486.0724-.13672.19531.0154.0513.20244.55642.22656.63086.0699.30668-.0344.25655.0723.66992.22575.79014.44652 1.20043.6543 1.36328.75311 2.15613 1.80208 5.09288 3.44726 9.63672l3.69922 10.5 14.09961 12c7.69999 6.59999 25.10118 21.40001 38.70117 33 13.49999 11.49999 24.39922 21.10078 24.19922 21.30078-.4.4-31.5008-17.50157-49.30078-28.60156-5.7-3.5-10.59883-6.09844-10.79883-5.89844-.3.3.69883 4.59923 2.29883 9.69922l2.70117 9.19922 11.09961 9.60156c5.99999 5.3 14.69961 13.39844 19.09961 17.89844 8.69996 8.7999 28.90036 32.30069 27.90036 32.30069-.4 0-3.20078-1.90078-6.30078-4.30078s-11.09923-8.09922-17.69922-12.69922-21.60079-15.49923-33.30078-24.19922-21.4-15.80078-21.5-15.80078-.19922 3.70079-.19922 8.30078v8.29883l19.5 13.20117c16.49998 11.09999 22.50002 15.99924 39 31.19922 31.89997 29.59997 31.99958 29.99998 1.59961 8.5-11.39999-8.19999-25.20001-17.39961-30.5-20.59961l-8.12109-4.9082c-.15399-.1323-.21645-.28775-.47852-.39258-.064-.0213-.0679.0429-.12695.0273l-.87305-.52734-.0469.73242c-.28169.36709-.40943 1.07072-.35351 2.46875 0 .56655.0671.81231.11719 1.14844l-.21678 3.3516c-.6 8.99999-.59921 8.89846 9.30078 32.39844l7.5 17.80078 19.39844 21.19922c10.69999 11.69999 23.50039 25.7 28.40039 31 4.89999 5.29999 9.2 9.70078 9.5 9.80078.7 0-8.59883-46.49922-9.79883-49.19922-.5-.9-9.10079-10.5004-19.30078-21.40039-26.49997-28.39997-27.40039-29.40039-26.40039-29.40039 1.3 0 34.20119 25.80001 49.20117 38.5l12.39844 10.5 7.60156-.69922c4.3-.3 7.89961-.70039 8.09961-.90039.6-.5-4.80117-18.30039-6.70117-21.90039-6.79999-13.29999-26.79963-38.89924-45.09961-57.69922-5.69999-5.99999-9.99961-10.80078-9.59961-10.80078.5 0 6.7004 4.4004 13.90039 9.90039 13.49999 10.09999 23.2004 18.89962 30.40039 27.59961l4.19922 5-1.90039-5.69922c-1.1-3.1-4.29922-13.90001-7.19922-24-4.89999-17.19998-5.60079-18.80079-10.80078-25.80078-3-4.1-12.0004-17.10001-19.90039-29-7.99999-11.79999-15.19961-21.79922-16.09961-22.19922s-1.10039-.70117-.40039-.70117c1-.1-20.80001-34.9004-25-39.90039-1.1-1.4-18.19924-9.89845-42.19922-20.89844-9.99999-4.59999-27.80039-10.40078-31.90039-10.30078zm-529.03711.32422c-.2875-.2-1.46289-.12461-3.46289.27539-.93517.17813-1.4883.40287-1.85938.625-5.53863 1.23211-15.90452 4.3805-21.14062 6.67578-7.19999 3.1-45.69961 20.7-48.09961 22-.8.4-12.70001 17.59924-26.5 38.19922-13.69999 20.59998-28.90079 43.00118-33.80078 49.70117l-8.79883 12.39844-6.40039 22.10156c-3.499997 12.19999-6.69961 23.09922-7.099609 24.19922-.4 1.1 3.699614-2.7004 9.099609-8.40039 9.79999-10.09999 20.00079-19.10001 30.30078-26.5 2.9-2.1 5.49961-3.7 5.59961-3.5.2.2-5.19962 6.5004-12.09961 13.90039-24.699974 26.69997-37.800004 46.00002-42.999999 63.5-1.799998 5.99999-3.1 10.99961-3 11.09961s3.799614.39961 8.09961.59961l7.90039.5 12.099609-10.09961c19.79998-16.69998 49.7-39.79961 50.5-39.09961.5.5-20.19962 22.90002-36.09961 39l-10.80078 11-5 24.90039c-2.7 13.79999-5 25.2-5 25.5.1 1.4 59-62.50039 59-63.90039 0-.5 3.70079-9.59923 8.30078-20.19922l8.19922-19.30078-.30078-7.69922c-.0861-1.85146-.26838-3.40874-.46289-4.74805.09626-.36609.26367-.47366.26367-1.05273 0-.93279-.40545-1.41907-.98633-1.66016-.038-.0375-.0761-.33984-.11328-.33984-.0381 0-.31331.1712-.36328.17969-.0942-.005-.13327-.0894-.23633-.0801-.96498 0-1.10105.23883-.61328.49805-4.39507 1.58746-26.62469 15.95297-49.48828 32.20312-7.39999 5.1-13.59883 9.19844-13.79883 8.89844-.6-.6 16.09963-16.50001 31.59961-30 8.19999-7.19999 21.39962-17.09884 33.59961-25.29883l20.09961-13.59961-.39844-7.60156c-.3-4.2-.50156-7.99844-.60156-8.39844s-3.59922 1.8-7.69922 5c-19.89998 15.29999-71.20039 52.19961-71.90039 51.59961-.6-.5 15.70118-19.50079 24.70117-28.80078 4.8-4.9 14.59923-13.99962 21.69922-20.09961l13-11.19922 2.80078-9.30076c1.5-5.09999 2.7-9.39961 2.5-9.59961-.2-.1-14.3008 7.79923-31.30078 17.69922-27.59997 15.89998-35.10039 20-31.90039 17 1-.9 33.30003-27.69885 60-49.79883 8.69999-7.19999 16.89961-14.2 18.09961-15.5 2.1-2.2 10.70039-24.80078 9.40039-24.80078-2 .1-20.10002 10.3004-36 20.40039-10.09999 6.39999-18.49922 11.49883-18.69922 11.29883s6.39884-5.99884 14.79883-12.79883 18.8-15.70078 23-19.80078c6.19999-5.79999 11.60158-9.49884 26.10156-17.79883 9.99999-5.69999 21.89844-12.30156 26.39844-14.60156 3.24608-1.62304 4.49162-2.53097 5.85742-3.45703.686-.0446 1.44346-.2203 2.14258-.54297 1.55-.7 2.15078-1.175 1.86328-1.375zm-83.96289 23.67578c-.7 0-1.89961.7-2.59961 1.5-.44617.53541-.58307.83994-.54688 1.07031-3.29413 1.85573-22.53221 14.33898-49.2539 32.0293l-52.19922 34.70117v154.09961l.099609 154.09961 14.201172 9.09961c7.799992 4.99999 38.699249 25.20041 68.699219 44.90039s66.20001 43.40079 80.5 52.80078 37.30001 24.50001 51 33.5c53.59995 35.39997 111.60006 73.59965 171 112.59961 34.09997 22.39998 62.9 41.39961 64 42.09961 5.79999 3.9 6.5 1.6992 6.5-19.30078 0-16.19999-.2-18.29922-1.5-17.19922-1.2 1-3.59923-.20079-13.69922-6.80078-14.29998-9.19999-135.10083-88.79925-183.30078-120.69922-54.29995-35.89996-70.80007-46.80005-143-94-37.89996-24.79998-72.30079-47.3-76.300781-50l-7.398438-5-.201172-72.09961c-.1-39.59996-.500391-72.49961-.90039-73.09961-.4-.6-5.100006-1.40078-10.5-1.80078-5.499995-.4-10.498829-1.1-11.298828-1.5-1.299999-.9 3.098842-18.50005 17.298828-69l4.90039-17.40039.400391-18.90039c.000259-.0135.0017-.0217.002-.0352.07484.75989.0979 3.13033.197266 2.13672.191259-2.00822.174543-5.34736 0-7.65039.246692-7.55926.602004-13.83199 1-14.15039.399999-.4 7.700008-5.3004 16.000004-10.90039l15.30073-10.09957 10.69922-16.5c5.99999-9.09999 15.6-23.59923 21.5-32.19922 4.36722-6.43981 7.17151-11.00875 8.55664-13.57422.71854-.25815 1.36674-.67098 1.64453-1.22656.21198-.63595.0277-1.02729-.32422-1.25781-.002-.001.0252-.0421.0234-.043-.00036-.00009-.0465.0313-.0469.0312-.14312-.08682-.22986-.23039-.45306-.23039zm540.30078 66c-.4 0-6.30118 2.40039-13.20117 5.40039-12.69999 5.6-22.70002 8.9-37.5 12.5-5.8 1.4-9.99922 3.19961-14.19922 6.09961-5.59999 3.8-12 10.90078-12 13.30078 0 .6.80078.3 1.80078-.5.9-.9 4.19922-2.90156 7.19922-4.60156 6.09999-3.4 15.50002-4.79961 39.5-6.09961l13-.69922 10.30078-5.20117c8.39999-4.3 10.19922-5.6 9.69922-7-.3-.9-1.29922-4.29844-2.19922-7.39844-.9-3.2-2.00039-5.80078-2.40039-5.80078zm-386.40039.30078c-1.2 3.1-4.5 14.3-4.5 15 0 .4.40039.69922.90039.69922s5.29922 2.09922 10.69922 4.69922c9.79999 4.69999 10.0004 4.80039 22.90039 5.40039 26.99997 1.4 36.60001 3.5004 45.5 9.90039 3.6 2.6 3.7 1.6.5-3-5-7.29999-13.60001-13.10039-21-14.40039-8.69999-1.5-30.9004-8.90001-42.40039-14-8.19999-3.7-12.29961-5.09883-12.59961-4.29883zm338.90039 45.39844c-3 .5-3.20117.80078-3.70117 5.80078-1 9.99999-4.49845 13.6-14.89844 15.5-4.99999 1-5.30078.9-8.30078-2-1.7-1.6-3.39922-3-3.69922-3-.8 0-3.80078 5.90078-3.80078 7.30078 0 .6 1.20078 2.4 2.80078 4 2.6 2.8 2.89845 2.89883 9.39844 2.29883 6.69999-.6 21.00156-5.5 23.60156-8 1.5-1.4 7.19922-17.09922 7.19922-19.69922 0-1.9-3.99961-2.90117-8.59961-2.20117zm-295.5.10156c-3 .4-3.1.60001-2.5 4.5.4 2.2 1.90039 6.99961 3.40039 10.59961 2.6 6.39999 2.89962 6.70039 9.59961 9.90039 3.8 1.9 8.8 3.69922 11 4.19922 8.19999 1.6 12.2 1.20039 15.5-1.59961 3.5-2.9 3.69883-4.50118 1.29883-9.20117l-1.79883-3.29883-2.90039 3.09961c-2.4 2.5-3.60039 3-7.40039 3-2.5 0-6.50039-.9-8.90039-2-4.8-2.2-6.89844-5.90001-7.89844-14-.5-4.4-.80039-4.79922-3.40039-5.19922-1.6-.3-4.3-.2-6 0zm28.09961 4.19922c-1.9 0-2.70078 2.00078-1.30078 3.30078 1.3 1.4 3.30078.59922 3.30078-1.30078 0-1.3-.7-2-2-2zm245.5 0c-1.7 0-2.8 1.7-2 3 .7 1.1 2.80078 1.30039 3.80078.40039.9-1-.40078-3.40039-1.80078-3.40039zm-453.09961 98c-.2 0-10.70118 6.40079-23.20117 14.30078s-24.39844 15.29961-26.39844 16.59961c-2.1 1.2-8.5004 8.09923-14.40039 15.19922l-10.5 13-4 22.59961c-2.199997 12.39999-3.901171 22.90078-3.701171 23.30078s4.600791-3.99922 9.800781-9.69922c12.99999-14.29998 33.09922-34.50039 33.69922-33.90039.3.3-2.29883 3.89922-5.79883 8.19922-3.5 4.2-7.1 8.60078-8 9.80078-2.4 3-18.90039 55.7-18.90039 60 0 .8 3.80079.8 13.80078 0 7.49999-.7 13.79844-1.20078 13.89844-1.30078 0 0 5.60079-9.19884 12.30078-20.29883 11.89999-19.99998 17-27.60078 15.5-23.30078-.4 1.1-5.19961 14.5008-10.59961 29.80078-5.39999 15.29999-9.90039 28.19922-9.90039 28.69922 0 .4 3.50079 1.70039 7.80078 2.90039l7.69922 2.09961 13.40039-5.5c7.29999-3 13.9-5.5 14.5-5.5s-1.70039 2.80078-4.90039 6.30078c-3.3 3.4-7.30078 7.59883-8.80078 9.29883l-2.69922 3 4.40039 9.5c2.4 5.19999 5.09961 11.20039 6.09961 13.40039l1.59961 4 10.40039-20.30078c5.59999-11.19999 10.69922-20.79883 11.19922-21.29883.6-.6 1.20117 7.49923 1.70117 22.19922l.69922 23.20117 6 8.79883c3.3 4.79999 5.8 9.30078 5.5 9.80078-.4.5.19961 1.4 1.09961 2 1.5.8 2.00078.6 2.80078-1.5.7-1.9 1.39961-2.4 3.09961-2 2.1.6 2.30039.19999 2.90039-6 .7-5.59999 1.39922-7.3 5.19922-12.5 15.49998-20.59998 49.50082-38.90079 93.30078-50.30078 10.79999-2.8 12.50078-3.60039 12.80078-5.40039.5-3-.8008-2.89883-16.30078 1.20117-3.28336.86594-6.52934 2.00662-9.80664 3.00781-.0117-.52686-1.00639-.34547-3.19336.5918-1.04975.442-1.37637.64979-1.23242.76562-22.38214 7.24826-43.74724 17.09366-57.36719 26.83399-8.09999 5.79999-21.90039 18.8-21.90039 20.5 0 .5-.40078.90039-.80078.90039-.8 0-.59961-8.29923.40039-14.69922.5-3.2.60079-3.30078 5.30078-3.30078 10.29999 0 9.89884.40037 17.29883-15.59961 5.89999-12.79999 6.4-14.40039 4.5-13.90039-4.5 1.3-19.39962 6.79961-26.09961 9.59961-9.09999 3.8-10.2996 3.60039-3.59961-.59961 13.09999-8.29999 43.50002-19 67.5-24 13.59999-2.8 33.39962-5.5 40.09961-5.5 4.1 0 4.40039-.19961 4.40039-2.59961v-2.70117l-8.69922.70117c-29.29997 2.2-62.5012 10.30001-88.20117 21.5-5.2 2.2-9.59922 3.89883-9.69922 3.79883-.2-.1 1.79883-5.70001 4.29883-12.5 2.6-6.69999 4.50117-12.39961 4.20117-12.59961-.4-.4-12.6 1.00039-17 1.90039-1.4.3-6.10039 2.6-10.40039 5l-7.69922 4.40039.69922-2.70117c.4-1.5 1.09922-3.19844 1.69922-3.89844 1.1-1.4 19.50079-7.60117 28.80078-9.70117 27.99997-6.39999 61.60082-7.10039 97.80078-1.90039 4 .5 4.19922.40156 4.19922-1.89844 0-2.4-.29923-2.60117-10.19922-3.70117-45.19995-5.2-78.3012-2.89999-109.20117 7.5-5.5 1.9-10.19922 3.40039-10.19922 3.40039-.1 0 1.99922-7.49923 4.69922-16.69922 2.7-9.29999 4.90039-17.1 4.90039-17.5s-4.59922 2.09961-10.19922 5.59961c-5.69999 3.5-15.50118 9.49883-21.70117 13.29883l-11.5 6.90039-5.29883 12.5c-2.9 6.79999-5.50078 12.90039-5.80078 13.40039-.3.6-.20039-3 .0996-8 .6-9.89999 1.0008-11.30004 16.30078-52.5 5-13.49999 9.09961-25.29922 9.09961-26.19922 0-2.3-3.00039-9.80078-3.90039-9.80078-1.7 0-25.09962 25.09923-31.09961 33.19922-3.6 4.79999-10.0004 14.70001-14.40039 22-7.29999 12.39999-7.79922 13.00078-7.19922 8.80078.9-5.99999 5.90039-20.7004 9.40039-27.90039 4.7-9.39999 19.49962-30.79885 32.59961-47.29883l12.29883-15.40039-3.39844-6.70117c-1.8-3.7-3.60039-6.69922-3.90039-6.69922zm660.19922 0c-.3 0-2.19961 3.1-4.09961 7l-3.5 7 9.30078 11.19922c26.39997 32.19997 37.49923 50.70041 43.69922 72.90039 3.1 11.49999 2.39921 12.20038-2.80078 2.40039-10.19999-18.99998-21.39845-34.40002-36.89844-50.5l-11.10156-11.5-2.09961 4.5c-1.1 2.5-2.09961 5.49922-2.09961 6.69922 0 2.5 10.6004 33.20158 16.90039 49.10156 2.2 5.4 4.6 12.29883 5.5 15.29883 1.6 5.49999 3.99883 22.8 3.29883 23.5-.2.2-2.99922-5.69962-6.19922-13.09961-4-9.39999-6.50039-14.10039-8.40039-15.40039-4.5654-3.23383-35.28426-22.0063-38.61524-23.68359-.17431-.7999-.62157-1.41602-1.38476-1.41602-.13477 0-.16554.2632-.24219.41797-.007-.00076-.35566-.22139-.35742-.21875-.007.007.15399.54924.15234.57226-.0512.4756-.002 1.12472.14844 1.82813.25196 1.38575.47635 1.73022.76953 1.62891.59764 2.61509 1.45809 6.1373 3.5293 13.27148 2.7 9.39999 4.90039 17.09961 4.90039 17.09961 0 .1-3.89922-1.19883-8.69922-2.79883-19.26892-6.44323-39.94033-9.81163-62.97656-10.24023 1.47903-.075 3.77975-.12945 2.47656-.25977-2.1-.2-5.5-.2-7.5 0-.91191.0868-.99056.16976-.58398.24024-13.23727.0278-27.20772.93601-42.2168 2.85937-8.19999 1-9.00078 1.30039-9.30078 3.40039-.4 2.7-.7992 2.6 14.30078.5 15.29998-2.1 53.00001-2.40039 66-.40039 15.89998 2.3 27.70001 5.1004 39 8.90039 9.49999 3.2 11.10039 4.09844 11.90039 6.39844 1.5 4.09999.19921 4.30078-4.80078.80078-2.6-1.7-6.10039-3.70039-7.90039-4.40039-3.5-1.5-20.59844-3.99922-21.39844-3.19922-.3.3 1.79961 6.10001 4.59961 13 2.8 6.79999 5.09961 12.7 5.09961 13 0 .4-.99922-.00078-2.19922-.80078-3.99999-2.6-24.0004-10.3-35.90039-14-19.39998-5.79999-51.40001-11.59961-64.5-11.59961-4.1 0-4.50117.20078-4.20117 2.30078.2 1.8 1.00078 2.2 4.30078 2.5 31.39997 2 68.90002 11.19845 93.5 22.89844 11.09999 5.29999 16.90078 9.20078 13.80078 9.30078-2.5 0-2.3 4.00039.5 7.90039 8.49999 12.09999 16.39883 22 17.79883 22 2.5.1 2.90039-2.79963 2.90039-20.59961 0-8.99999.30078-16.30078.80078-16.30078.4 0 5.39923 9.50001 11.19922 21 5.79999 11.59999 10.60078 21 10.80078 21 .3 0 1.49923-2.80002 8.19922-18l3.69922-8.59961-8.29883-8.90039c-4.49999-4.9-8.2-9.09922-8-9.19922.3-.4 17.49883 6.09922 22.79883 8.69922 4.79999 2.2 4.80001 2.2 12 .5 3.99999-1 7.70156-2.1 8.10156-2.5.4-.3-1.50117-6.80079-4.20117-14.30078-8.89999-24.29998-16.3-45.79922-16-46.19922.5-.4 17.0004 25.89923 23.40039 37.19922l4.59961 8.10156 12.90039.69922c7.19999.4 13.29922.60039 13.69922.40039.5-.2.7-1.00039.5-1.90039-.3-1.4-9.70001-33.39923-14.5-49.19922-1.5-5.19999-3.69844-8.80079-9.89844-16.80078-4.39999-5.59999-7.80156-10.39961-7.60156-10.59961.5-.4 24.60118 23.99962 36.20117 36.59961l7.79883 8.5-.69922-4.5c-1.9-12.59999-7.49922-42.20039-8.19922-43.40039-2.2-3.5-21.60039-26.5-22.90039-27-.7-.3-12.40079-7.49962-25.80078-16.09961-13.39999-8.49999-24.6-15.5-25-15.5zm-593 19.09961c-.4.6-17.59961 33.10039-17.59961 33.40039 0 .1 5.89962.50039 13.09961.90039s16.9 1.09961 21.5 1.59961l8.40039.90039 16.80078 14.90039c9.19999 8.19999 17.39922 15.69922 18.19922 16.69922.8.9 1.59922 1.30078 1.69922.80078.5-1.5-6.6-43.6-7.5-44.5-1.8-1.8-53.99961-25.40117-54.59961-24.70117zm524.90039.20117-4 1.79883c-2.2.9-14.30001 6.50118-27 12.20117l-23 10.5-3.19922 18.39844c-1.7 10.09999-3.40078 20.30078-3.80078 22.80078l-.69922 4.5 2.29883-2c1.3-1.1 9.6004-8.59962 18.40039-16.59961 18.39998-16.69998 14.50003-15.1 41-17 8.79999-.6 16.2-1.39961 16.5-1.59961.2-.2-3.4-7.70118-8-16.70117zm-308.125 101.88672c-1.675.0625-3.17422.61289-6.07422 1.71289-3.2 1.2-6.8 3.00039-8 3.90039-2.2 1.6-1.99999 1.69883 7 1.79883 10.69999 0 13.79923 1.09962 23.19922 8.09961l6.5 4.80078v5.5c0 11.29999.6004 12.7 7.40039 17l6.09961 3.90039.30078-12.40039.29883-12.5h9.40039 9.5v12.59961c0 6.89999.30078 12.40117.80078 12.20117.4-.1 3.19844-2.00156 6.39844-4.10156l5.60156-3.89844.69922-9.30078.69922-9.30078 6.30078-4.59961c9.29999-6.79999 12.49923-7.9 23.19922-8 5.09999-.1 9.30078-.39922 9.30078-.69922 0-.9-10.60078-5.9-13.80078-6.5-4.1-.8-16.90001 2.99961-22 6.59961l-4.29883 3h-22.20117-22.19922l-4.80078-3.40039c-3.2-2.3-7.49922-4.09922-12.19922-5.19922-3.6-.85-5.45-1.27539-7.125-1.21289zm218.72461 15.98828c-1.95-.1-2.09961.625-2.09961 2.125 0 2 .90079 2.39961 8.80078 4.09961 12.29999 2.7 34.90001 9.99922 46.5 15.19922 18.29998 8.09999 33.79884 18.50001 44.79883 30 8.09999 8.49999 10.60039 12.9004 11.40039 19.90039.6 5.39999.79961 5.79961 2.09961 4.09961 1.3-1.8 1.50039-1.69883 2.90039 1.70117 1.6 4 1.60078 3.99961 3.80078 3.09961.9-.3 1.19844-1.4.89844-3-.2-1.3.10078-3.10039.80078-3.90039 1.6-1.9.60078-5.60079-3.19922-12.30078-3.2-5.6-6.80078-8.59961-6.80078-5.59961 0 1.1-2.9-1.4004-7.5-6.40039-4.2-4.4-10.40078-10.19922-13.80078-12.69922-18.69998-14.09999-44.99925-25.70001-75.69922-33.5-7.19999-1.8-10.95039-2.72422-12.90039-2.82422zm-340.40039 25.82422c-1.6 0-21.09884 10.79961-28.79883 16.09961-3.3 2.2-10.00039 7.4-14.90039 11.5l-8.90039 7.5-5.40039-4c-3-2.3-5.59883-4.09961-5.79883-4.09961-.3 0-.29961 4.7004-.0996 10.40039l.39844 10.29883-3.79883 6.60156c-2.1 3.7-4.10039 6.29844-4.40039 5.89844-.4-.4-2.10039-8.09923-3.90039-17.19922-3.3-16.19998-3.39883-16.50079-7.29883-20.30078l-3.9004-3.79883-3.90039 3.09961-4 3.19922v10 10l9.59961 18.90039c5.29999 10.39999 10 18.90039 10.5 18.90039s.90039-1.1.90039-2.5c0-2.7 1.80039-3.29922 3.90039-1.19922 1 1 1.09961.1.59961-4.5-.7-5.29999-.50039-6.0004 3.09961-12.40039l3.80078-6.90039 1.40039 5c.7 2.8 2.3 8.1 3.5 12l2.19922 6.90039 13.40039 9.09961 13.29883 9-.5 4.69922c-.4 3.2-.19844 4.80156.60156 5.10156 1.9.7 2.59883-.10078 3.29883-3.80078.7-4.1 1.5-4.20039 6-1.40039 1.9 1.1 3.40039 1.70078 3.40039 1.30078s-.99961-3.70039-2.09961-7.40039l-2.20117-6.59961 2.80078-5.40039c6.49999-12.99999 17.7008-26.90079 31.80078-39.80078 4.1-3.7 4.59922-4.49883 3.69922-6.29883-1.1-1.9-1.20039-1.9-4.90039 1-10.99999 8.69999-29.59922 31.3004-34.19922 41.40039-1.2 2.7-1.4 2.49999-5.5-9-2.3-6.49999-4.60117-12.90078-5.20117-14.30078-.9-2.3-1.19922-1.99999-5.19922 6-5 9.99999-4.7 10.29998-8.5-8.5-1.5-7.09999-3.20078-13.30078-3.80078-13.80078-3-2 23.00002-21.99845 40-30.89844 8.39999-4.29999 10.30078-5.7 10.30078-7.5 0-1.3-.60078-2.30078-1.30078-2.30078zm334.5293.0371c-.28438.20625-.4043.61211-.5293 1.16211-.4 1.2-.49844 2.30078-.39844 2.30078.1.1 4.29922 2.3 9.19922 5 12.79999 6.79999 25.49962 15.70079 34.59961 24.30078 6.79999 6.29999 7.80078 7.7 7.30078 10-.4 2.1.59883 4.19844 4.79883 9.89844 5.29999 7.19999 7.4 8.70117 8 5.70117.2-.9 1.90117 1.19961 4.20117 5.09961 3.4 5.79999 3.79883 7.20079 3.29883 11.30078-.4 4.1-.39961 4.39883.90039 2.79883 1.3-1.8 1.5-1.69961 3 1.90039l1.59961 3.80078 2.60156-5.40039 2.69922-5.40038-2.5-5.69922c-2.4-5.59999-5-7.70156-5-4.10156 0 .9-2.20039-1.89883-4.90039-6.29883-3.7-5.99999-4.80039-8.60117-4.40039-10.70117s-.29883-3.8-3.29883-7.5c-2.1-2.6-4.00117-4.89922-4.20117-5.19922s-.89961.29922-1.59961 1.19922c-1.1 1.5-2.09923 1.00116-9.19922-5.29883-11.59999-10.09999-21.40001-16.90079-34.5-23.80078-8.47499-4.5-10.81875-5.68125-11.67187-5.0625zm-16.42774 36.5625c-2 1.3-.1 4.10118 9.5 13.70117 10.89999 10.89999 16.49923 18.19962 24.19922 31.59961 4.5 7.89999 4.69961 8.49922 3.59961 11.69922-1.5 4.2.00039 7.80039 2.90039 6.90039 1.5-.5 2.09961.2 3.09961 3.5 1.1 3.7 3.10078 5.19922 4.30078 3.19922.3-.5.1-2.59961-.5-4.59961-.9-3.1-.70039-4.09961.59961-5.59961 1.4-1.6 1.4-2.19961-.5-7.09961-1.2-3-2.89922-6.50039-3.69922-7.90039-1.5-2.2-1.70078-2.19961-2.30078-.59961-.4 1.3-2.20079-.69962-7.30078-8.59961-3.6-5.59999-9.69844-13.80157-13.39844-18.10156-7.49999-8.59999-19.2-18.89961-20.5-18.09961zm-246.30078 51.4004c-.2 0-1.90078 2.10078-3.80078 4.80078l-3.5 4.69922-1.09961 16.5c-.6 9.09999-1.09961 18.30039-1.09961 20.40039v3.90039l11.09961-11.40039c6.09999-6.29999 10.8-10.70039 10.5-9.90039s-2.7 6.70001-5.5 13l-4.90039 11.5 1.60156 9.19922 1.69922 9.20117 6.5 6.59961c5.59999 5.69999 6.6 6.40039 7.5 4.90039 3.5-5.89999 11.8-18.40117 12-18.20117.1.2-.20078 3.80157-.80078 8.10156-1.1 9.09999-.19843 12.09844 4.60156 15.39844 3.2 2.2 14.69844 6.6 15.39844 6 .2-.2 1.20078-7.59884 2.30078-16.29883s2.20078-16.60039 2.30078-17.40039c.4-1.5.59883-.90076 5.29883 17.19922l2.80078 10.70117 10.59961 3.90039c5.79999 2.2 11.2 3.99961 12 4.09961 1 .1 1.89961-1.4 2.59961-4.5 1-4.3.80117-5.10118-2.29883-11.70117-3.6-7.59999-5.50078-9.59961-6.30078-7.09961-.7 2-6.20039-9.39962-9.90039-20.59961l-2.79883-8.5-8.40039-.30078c-7.49999-.2-9.59962.20117-20.09961 3.70117-6.49999 2.2-11.80078 3.79961-11.80078 3.59961 0-.1 1.70039-2.89961 3.90039-6.09961 2.1-3.3 5.3-8.40039 7-11.40039l3.09961-5.59961-4.69922-5.30078c-3.6-4.1-5.10039-5.19883-6.90039-4.79883-1.9.3-2.30078-.10078-2.80078-2.80078-.8-3.9-4.89961-7.99961-7.09961-7.09961-1 .3-4.00078-.70117-7.30078-2.70117-5.2-3-10.79922-5.69922-11.69922-5.69922z" fill="#f68206"/>
	<path d="m678.2 701.12279c-2.3-3-4.2-6-4.2-6.7 0-.6 2.3-2.9 5-4.9l5-3.7v9.9c0 5.4-.4 10.1-.8 10.4-.4.2-2.7-2-5-5zm64 2.9c-.6-2.1-2.7-6.1-4.5-8.9-1.8-2.7-3.1-5.6-2.9-6.3s.1-5-.3-9.6l-.7-8.3-7.6-.8-7.7-.9-6.8-13.9c-3.7-7.6-6.6-14-6.5-14.2.2-.1 3.9 1 8.3 2.6 7.1 2.5 10.9 4 20.6 8.2 1.4.6 3.4 2.6 4.5 4.4 2.4 4.3 17.1 23.4 17.6 22.9.1-.2.1 2.4-.2 5.8-.4 5.6-1.1 7.1-6.3 14.5-3.2 4.5-6 8.2-6.1 8.2-.2 0-.8-1.7-1.4-3.7zm-47.1 24.8c-1.1-2.7-2.1-6.1-2.1-7.5s1.6-10.1 3.5-19.3c3.4-16.3 3.6-16.9 7.4-20.7l3.9-3.9 3.7 2.9 3.8 2.8-.7 10.9-.6 10.9-7.3 14.1c-3.9 7.8-7.7 14.3-8.3 14.4-.6.2-2.1-1.9-3.3-4.6zm-46.8 26.2c-.3-1-1.6-4.2-2.9-7l-2.3-5.2 4.8-14.3 4.8-14.3 4.1 7.5c2.2 4.1 4.5 8.1 4.9 8.9.6.9 2-3.9 4-13.9 1.8-8.4 3.6-15.7 4.1-16.2 1.2-1.2 12.2 13.2 12.2 16.1 0 4.2-4.3 19.6-5.9 21.2-.9.9-7.3 5.5-14.4 10.3-11 7.6-12.8 8.5-13.4 6.9zm-10 3c1.2-4.9 3.7-5.8 5.4-2 1 2 .7 2.5-2.6 4.3l-3.7 2zm-244.3 21c0-.7-4.6-6-10.2-11.8-6-6.3-9.8-10.9-9.2-11.5.5-.5 2.1-1.2 3.6-1.5 2.6-.7 2.7-.5 3.8 5.2l1.2 5.8 6.7.2c3.7.1 7.6.6 8.8 1 2.1.8 2 .9-1.3 7.3-1.8 3.6-3.3 5.9-3.4 5.3zm7.4 14c.4-.4 5.1-2.4 10.4-4.4 10.6-3.9 10-4 11.6 2.4l.6 2.7h-11.6c-6.5 0-11.4-.3-11-.7zm59.2 49c-.3-1-2.1-7.4-4.1-14.2-3.8-13.2-4.2-14.2-4.9-12-.2.8-1.6 5.4-3.1 10.3-4.7 15.8-4 15.3-8.7 5.6-3.3-7-4-9.5-3.9-14 .2-8.2 3.7-28.1 7-40 3.2-11.7 2.7-11.8 7.1.5 1 2.8 2.2 5 2.6 5s1.8-3.3 3.2-7.3 2.9-6.9 3.4-6.4c1.9 1.9 7.8 28.8 9 41.2l1.3 13.3 4.2-10.4c2.3-5.7 5.1-14.2 6.4-18.9 1.2-4.7 2.5-8.8 2.8-9.2s9.1 2.4 19.5 6.3c10.3 3.9 19 6.8 19.3 6.6.2-.3-3.9-7.5-9.1-16.1-5.3-8.6-9.6-15.8-9.6-16s4-.7 8.9-1l8.8-.7.6-5c.8-6.6 1.2-7 5-5.4 3.1 1.3 3.7 1.1 12-3.1 4.7-2.4 9-4.4 9.4-4.3.4 0 2.4 2.3 4.4 5 3.6 4.9 3.6 5 4.3 18.2.4 7.3.9 16.3 1.3 20.1l.6 7-11.3-12.2c-6.3-6.7-11.5-12-11.7-11.9-.1.2 2.2 5.8 5.2 12.5 5.9 12.9 6.1 14.4 4.4 25.5-1.1 6.7-1.5 7.6-6.3 12.5-8 8.4-7.5 8.4-14.2-2.3-3.2-5.2-6.3-9.4-6.8-9.5-.4 0-.5.8-.2 1.7.4.9 1 5.1 1.3 9.3.5 7.1.4 7.7-2.1 10.7-2.4 2.9-8.7 6-15.6 7.6l-2.6.6-1.8-16.2c-1.1-8.9-2.2-16.8-2.6-17.6-.4-.7-2.3 5.1-4.4 13.5l-3.8 14.9-11.6 3.8c-6.4 2-12 3.7-12.4 3.7s-.9-.8-1.2-1.7zm-7.6 95.2v-18.6l28.3-18.6c26.1-17.2 37.1-24.4 83.2-54.7 9.3-6.1 24.5-16 33.7-22.1 9.2-6 23.4-15.3 31.5-20.7 8.2-5.3 40-26.1 70.8-46.4 30.8-20.2 73.8-48.4 95.5-62.7 21.7-14.2 48.2-31.6 58.7-38.6l19.3-12.6v-73.1-73.2l12-1.2c8.8-1 12-1.7 12-2.7 0-.7-5.4-20.4-12-43.6l-12-42.4v-19-19.1l-17-11.1c-9.3-6.2-17.7-12.2-18.6-13.4-1.9-2.6-37-57.4-38.5-60-1-1.7-.9-1.7 1.8-.3 1.5.8 25.3 16.3 52.8 34.4l50 32.9.3 154.5.3 154.4-21.8 14.3c-12 7.8-41.1 27-64.8 42.6-49.8 32.8-56.7 37.4-137 90-62.8 41.2-81.5 53.5-108 70.8-8.8 5.7-37.1 24.3-63 41.2-25.8 16.9-49.4 32.3-52.2 34.2l-5.3 3.4z" fill="#83450a"/>
</svg>
